<svg xmlns="http://www.w3.org/2000/svg" width="500px" height="193px" viewBox="0 0 500 193" preserveAspectRatio="xMinYMax meet"><g fill="#000"><path d="M409.3 61.7c-15.4 0-27.9 12.5-27.9 27.9 0 15.4 12.5 27.9 27.9 27.9 15.4 0 27.9-12.5 27.9-27.9-.1-15.4-12.5-27.9-27.9-27.9zm0 42.2c-7.9 0-14.3-6.4-14.3-14.3s6.4-14.3 14.3-14.3 14.3 6.4 14.3 14.3-6.4 14.3-14.3 14.3zM281.4 61.7c-15.4 0-27.9 12.5-27.9 27.9 0 15.4 12.5 27.9 27.9 27.9 15.4 0 27.9-12.5 27.9-27.9 0-15.4-12.5-27.9-27.9-27.9zm0 42.2c-7.9 0-14.3-6.4-14.3-14.3s6.4-14.3 14.3-14.3 14.3 6.4 14.3 14.3-6.4 14.3-14.3 14.3zM379.6 104.7c-1.8.5-4.5 1-5.5 1-4.8 0-5.8-1.6-5.8-6.2V73.7h11.4V62.9h-11.4V47.7h-12.8l-2.7 15.2h-9.6c-7.3 0-12.8 4.5-16.4 11.5l-4.5-11.5h-9.2v53.5h15.7V93.2c0-11.7 6.9-19.2 15.1-19.5h8.6v26.6c0 12.5 6.4 17.2 16.9 17.2 5.4 0 9.5-1.1 12-2l-1.8-10.8zM456.2 79.9v36.6h-15.3V62.9h9.3l3.1 8.2M453.2 71.2c4.6-5.4 11-9.5 18.5-9.5 12.7 0 18 10.1 18 19.6v35.2H474V81.7c0-4.6-3.8-7.1-8-7.1-4.4 0-7.2 2.5-9.7 5.2M192.2 43.6h17.5l24.1 45.8V43.6h14.5v72.9h-15.9l-25.7-50.4v50.4h-14.5V43.6z"/></g><g fill="#000"><path d="M493.8 63v1h-1.5v5.1h-1.2V64h-1.5v-1h4.2zM494.6 69.1V63h1.6l1.1 4 1.1-4h1.6v6.1h-1v-4.8l-1.2 4.8h-.9l-1.3-4.8v4.8h-1z"/></g><g fill="#937100"><path d="M196.7 170.8l-1.1 3.5h-3v-40.1h5v14.6c1.6-1.8 4.4-3.8 7.9-3.8 7.6 0 11 7.6 11 14.4 0 9.1-4.7 15.3-11.8 15.3-3.6.1-6.1-1.5-8-3.9zm14.5-11.3c0-4.7-1.5-10.1-6.8-10.1-2.4 0-4.7 1.1-6.7 3.2v15.3c1.8 2 3.5 3 6.1 3 4.7 0 7.4-4.2 7.4-11.4zM219.8 145.7h5.1l7.2 24.2 6.7-24.2h5l-9.6 30.8c-1.7 5.3-4.5 8.3-10 8.3-1.1 0-2.3-.2-3.5-.5l.6-3.6c.7.1 1.4.3 2.4.3 3 0 5.2-1.4 6.3-4.9l-10.2-30.4zM258.8 170.2l2.5-3.5c2.4 1.9 6 3.9 11.3 3.9 5.2 0 8.3-2.5 8.3-6.8 0-4.8-3.7-6.3-9-8.1-5.7-2-10.9-4.6-10.9-11.9 0-6.5 5.1-10 11.9-10 4.8 0 7.6.8 10.7 2.6l-2.1 3.9c-2.4-1.4-5.1-2.2-8.7-2.2-4.3 0-7.2 1.6-7.2 5.7 0 4.3 2.8 5.6 8.7 7.7 5.6 1.9 11.5 4.4 11.5 12.2 0 7-5 11.2-13.2 11.2-6.6-.1-11.1-2.5-13.8-4.7zM288.7 145.7h5.1l7.2 24.2 6.7-24.2h5l-9.6 30.8c-1.6 5.3-4.5 8.3-10 8.3-1.1 0-2.3-.2-3.5-.5l.6-3.6c.7.1 1.4.3 2.4.3 3 0 5.2-1.4 6.3-4.9l-10.2-30.4zM348.3 145.1c5.8 0 7.3 4.9 7.3 9.6v19.6h-5v-19.6c0-2.8-.5-5.4-3.9-5.4-2.3 0-4.8 1.4-7.3 3.9v21h-5v-19.6c0-2.8-.5-5.4-3.9-5.4-2.4 0-5 1.6-7.3 4v21h-5v-28.7h3l1.3 4.6c2.6-2.8 5.9-5.2 9.7-5.2 3.8 0 5.5 2.1 6.6 5 2.4-2.8 5.8-4.8 9.5-4.8zM378.9 155c0-3.9-1.2-5.8-5.4-5.8-2.8 0-5.5 1.1-8.2 2.5l-1.8-3.4c3-1.9 6.2-3.2 10.4-3.2 7.1 0 10 3.9 10 10.3v19H381l-1.3-3.4c-2 2-5.1 3.9-8.8 3.9-5 0-8.8-3.1-8.8-7.9 0-3.1 1.2-5.4 3.8-7 2.6-1.6 7.1-2.7 13-3.6V155zm0 4.6c-5.7 1.1-9.4 2.3-10.8 4-.7.9-.9 1.7-.9 2.9 0 2.8 1.4 4.4 4.4 4.4 2.9 0 5.5-1.5 7.3-2.8v-8.5zM392.3 145.7h3l1.3 4.7c2.6-3 6-5.3 10.2-5.3 6.2 0 7.8 4.9 7.8 9.6v19.6h-5v-19.6c0-2.8-.7-5.4-4.4-5.4-2.7 0-5.5 1.6-7.8 4.1v20.9h-5v-28.6zM419.9 149.2v-3.5h4.4l1.3-8.2h3.6v8.2h6.4v3.5h-6.4v17.7c0 2.7.5 4.1 3.2 4.1 1.1 0 2-.2 3.2-.6l.7 3.5c-1.1.5-2.8.9-4.6.9-5.2 0-7.6-2.5-7.6-7.6v-17.9h-4.2zM452.6 170.8c3.3 0 5.4-1.3 7.8-2.8l2.1 3c-2.8 2.3-5.4 3.8-10.3 3.8-7.4 0-12.1-5.7-12.1-14.8 0-8.8 4.6-14.9 11.7-14.9 7.4 0 11.3 5.5 11.3 15.1v1.2h-17.8c.3 6.1 2.5 9.4 7.3 9.4zM458 158c-.2-6-2.2-9.2-6.2-9.2-3.6 0-6 2.8-6.4 9.2H458zM467.7 160.2c0-7.4 3.2-15.1 12.1-15.1 3.6 0 6.4.9 8.9 3l-2.2 3.4c-1.8-1.4-4-2.3-6.7-2.3-6 0-6.9 6.2-6.9 11.1 0 4.7 1.1 10.5 7.1 10.5 2.9 0 4.9-1.1 6.8-2.7l2.4 3c-2 2.1-5 3.8-9.5 3.8-8.6-.1-12-7.5-12-14.7z"/></g><g><path fill="#FFF" d="M83.6 193C37.5 193 0 155.5 0 109.4c0-46.1 37.5-83.6 83.6-83.6 46.1 0 83.5 37.5 83.5 83.6 0 46.1-37.5 83.6-83.5 83.6zm0-140.7C68.3 52.3 54 58.2 43.2 69c-10.8 10.8-16.7 25.1-16.7 40.4 0 15.3 5.9 29.6 16.7 40.4 10.8 10.8 25.1 16.7 40.4 16.7 15.2 0 29.6-6 40.4-16.7 10.8-10.8 16.7-25.1 16.7-40.4 0-15.3-5.9-29.6-16.7-40.4-10.9-10.8-25.2-16.7-40.4-16.7z"/><path fill="#000" d="M144.5 102.2"/><path fill="#FFF" d="M174.6 13h6.5v6.5h-6.5zM174.6 0h6.5v6.5h-6.5zM156.2 19.5h6.1v6.4h-6.1z"/><path fill="#000" d="M144.2 31.9h6.1V38h-6.1zM162.3 25.8h6.8v6.1h-6.8zM138.1 26.1h6.1v5.8h-6.1zM156.2 31.9h6.1V38h-6.1zM168.1 6.5h6.4V13h-6.4zM156.2 13h11.9v6.5h-11.9z"/><path fill="#000" d="M150.3 19.5h5.9V32h-5.9zM150.3 38v6.1h-6.1V38H134v4.4h-5.5v5.5h6.1V54h-6.1v-6.1H122v9.5h-6.1v6.1h-4.1v6.1h-4.5c-5 7.5-17.6 30.7-21.4 40.2-13.6-19.1-24.2-26.6-32.6-29.4-4.5-1.4-10 3.6-2.5 11.3 17.2 19 22.7 34.7 27.9 47.2 2.8 6.6 15.2 7.6 17.7.9 5.3-14.2 13-30.2 22.1-43.3v-6.8h4.9v-6.1h5.1v-7.1h6.1v-6.8h-6.2v-6.2h6.2v6.2h6v-6.2h4.8v-7.4h5.5V51h5.2V38h-5.8z"/></g></svg>