<svg xmlns="http://www.w3.org/2000/svg" viewBox="0 0 97.41 101.6"><title>Asset 1</title><g id="Layer_2" data-name="Layer 2"><g id="Layer_5" data-name="Layer 5"><path d="M12.66,12.47C3.79,14.41-3.18,24.93,1.51,35.88c2.83,6.18,8.71,9.22,12.87,9.45,1.65-1.86,6.83-7.55,8.54-9.47-6.94,0-8.39.17-9.91-.68-5.31-3-5.38-10.87,1-13.25,3.68-1.18,9,1.16,9,7.37,0,2.26.06,0,0,6.57,0,3,0,5.84,0,8.82h9.3c0-.29,0-13.45,0-16.17A16.37,16.37,0,0,0,12.66,12.47Z" style="fill:#60295e"/><rect x="50.83" width="9.64" height="44.68" style="fill:#60295e"/><rect x="36.52" width="9.65" height="44.68" style="fill:#60295e"/><polyline points="80.2 56.83 96.31 12.54 86.24 12.54 79.95 32.21 73.36 12.54 63.28 12.54 75.04 44.68 70.19 56.83" style="fill:#60295e"/><path d="M93.9,38.29a3.59,3.59,0,0,0-3.51,3.64,3.53,3.53,0,0,0,3.54,3.6,3.59,3.59,0,0,0,3.49-3.68,3.5,3.5,0,0,0-3.52-3.56m0,6.7A2.91,2.91,0,0,1,91,41.93a3,3,0,0,1,2.88-3.11,2.91,2.91,0,0,1,2.88,3A3,3,0,0,1,93.92,45Z" style="fill:#650360"/><path d="M95.55,41c0-.81-.46-1.21-1.43-1.19l-1.59,0,0,4.23h.64V42.21h.68L95,44h.68l-1.18-1.86A1.08,1.08,0,0,0,95.55,41m-1.71.68h-.67V40.34H94c.43,0,.91.07.91.62S94.4,41.66,93.84,41.67Z" style="fill:#650360"/><path d="M33.2,53.87h.4a4.3,4.3,0,0,0,1.62.74A6.41,6.41,0,0,1,37.93,58a13.37,13.37,0,0,1,.68,3.58v2a2.18,2.18,0,0,0,.07.54q-.46,6.67-1.21,8.3A12.2,12.2,0,0,1,36,76c-.59.86-.94,1.29-1.08,1.29-.31-.07-.47-.16-.47-.27v-.27a1.8,1.8,0,0,0,.34-.95,1,1,0,0,1-.13-.4c0-.13.09-.2.13-.2,0-.58-.07-1.06-.07-1.42q0-16.74-1.82-19.51v-.14C32.93,54.07,33,54,33.2,53.87Zm.81,1v.06q1.42,4.36,1.42,18.77V74c0,.9.07,1.39.07,1.48a17.07,17.07,0,0,0,2-5.8q.33-2.23.54-5.47,0-5.3-1.22-7A4.64,4.64,0,0,0,34,54.88Z" style="fill:#60295e"/><path d="M35,77.52h0c-.18,0-.66-.14-.66-.5v-.34l0-.06a1.66,1.66,0,0,0,.3-.77,1.08,1.08,0,0,1-.13-.45v-.07a.83.83,0,0,1,.11-.24c0-.54-.06-1-.06-1.31,0-11.06-.6-17.58-1.78-19.38l0-.06v-.21c0-.2.19-.35.38-.47l.05,0h.58l.07.07a4,4,0,0,0,1.52.68l.05,0a6.65,6.65,0,0,1,2.8,3.49,13.63,13.63,0,0,1,.69,3.66v2a1.94,1.94,0,0,0,.06.48v.07c-.3,4.46-.7,7.19-1.21,8.34a13,13,0,0,1-1.44,3.63C35.35,77.42,35.14,77.52,35,77.52ZM34.72,77a.89.89,0,0,0,.22.08,6.4,6.4,0,0,0,.91-1.17,11.26,11.26,0,0,0,1.38-3.45l0-.1c.49-1.06.89-3.81,1.19-8.19a2.47,2.47,0,0,1-.06-.56v-2a13.17,13.17,0,0,0-.67-3.51,6.17,6.17,0,0,0-2.57-3.23,5,5,0,0,1-1.62-.72h-.24l-.1.08v0c1.23,2,1.82,8.38,1.82,19.58,0,.35,0,.82.07,1.4l0,.25h-.15a1.13,1.13,0,0,0,.11.26l0,.11a2,2,0,0,1-.34,1Zm.54-.73v-.78c0-.09,0-.58-.06-1.47v-.28c0-9.54-.47-15.83-1.41-18.69v-.48l.31.12A4.88,4.88,0,0,1,37,57.07c.83,1.17,1.24,3.51,1.24,7.12-.14,2.17-.32,4-.54,5.5a17.31,17.31,0,0,1-2,5.9Zm-.91-21c.87,3.07,1.31,9.27,1.31,18.44V74c0,.25,0,.48,0,.67a20.62,20.62,0,0,0,1.53-5c.22-1.46.4-3.29.54-5.44,0-3.45-.39-5.77-1.17-6.87A4.28,4.28,0,0,0,34.35,55.27Z" style="fill:#60295e"/><path d="M44.24,55.22h.54q.51,0,1.21,2.23a74.51,74.51,0,0,1,.67,10q0,7.8-.94,9.25a1.4,1.4,0,0,1-.94.61h-.27q-1.84,0-2.36-5.87Q42,69.17,41.88,65V63.72a19.3,19.3,0,0,1,1.28-7.29.53.53,0,0,1-.07-.27Zm-1.75,8.64q.22,6.86.54,9.38.56,3.38,1.62,3.38,1.35,0,1.35-9v-.14a62.06,62.06,0,0,0-.74-10.19c-.36-.9-.61-1.35-.74-1.35h-.07q-1.22.77-1.82,6Z" style="fill:#60295e"/><path d="M44.78,77.52h-.27c-1.38,0-2.23-2-2.6-6.08-.09-1.5-.18-3.66-.27-6.42V63.72a19.69,19.69,0,0,1,1.26-7.29.78.78,0,0,1,0-.28v-.11L44.16,55h.63c.34,0,.77.28,1.44,2.39a74.74,74.74,0,0,1,.69,10.06c0,5.29-.32,8.36-1,9.38A1.61,1.61,0,0,1,44.78,77.52ZM43.34,56.26l0,.06.06.1,0,.1a19.19,19.19,0,0,0-1.27,7.21V65c.09,2.75.18,4.9.27,6.4.42,4.67,1.39,5.66,2.13,5.66h.27c.2,0,.47-.18.77-.53.58-.9.89-4,.89-9.09a74.74,74.74,0,0,0-.67-10c-.64-2-1-2-1-2h-.46Zm1.3,20.59c-.86,0-1.45-1.13-1.85-3.57-.22-1.69-.4-4.85-.54-9.41l.13-2c.42-3.61,1-5.63,1.93-6.19l.06,0h.14c.21,0,.4.11,1,1.5a61.92,61.92,0,0,1,.76,10.28v.14C46.23,75.8,45.38,76.85,44.64,76.85Zm-.17-20.69c-.5.42-1.16,1.78-1.62,5.77l-.13,1.95c.14,4.52.33,7.67.54,9.34.46,2.76,1.07,3.17,1.39,3.17s1.12-.63,1.12-8.81v-.14A61.77,61.77,0,0,0,45,57.28,5.67,5.67,0,0,0,44.48,56.15Z" style="fill:#60295e"/><path d="M54.86,54.34H55q.47,0,.47,3.58v.88q0,1.32-.4,6.82a2.19,2.19,0,0,0,.07.54q-.07,3.53-.07,5.6v4.39a4,4,0,0,0,.14.67c-.06.32-.15.47-.27.47h-.27c-.18,0-.27-.61-.27-1.83q0-11.71.4-16.13V57.44a18.44,18.44,0,0,0-.2-2.84C54.59,54.54,54.68,54.45,54.86,54.34Z" style="fill:#60295e"/><path d="M54.93,77.52h-.27c-.34,0-.5-.32-.5-2.06,0-7.78.13-13.22.4-16.15V57.44a18.08,18.08,0,0,0-.2-2.8c0-.24.19-.39.38-.51l.06,0H55c.37,0,.71.29.71,3.81v.88c0,.89-.13,3.12-.41,6.84a2,2,0,0,0,.06.46v.06c0,2.35-.07,4.24-.07,5.6v4.39a3.63,3.63,0,0,0,.13.62v.1C55.4,77,55.31,77.52,54.93,77.52Zm-.19-.46h.14a.9.9,0,0,0,.08-.23,3.24,3.24,0,0,1-.13-.68V71.75c0-1.36,0-3.24.07-5.58a2.42,2.42,0,0,1-.07-.57c.27-3.66.41-6,.41-6.82v-.88c0-2.68-.21-3.23-.29-3.34h0l-.1.08a18,18,0,0,1,.2,2.79v1.89c-.27,2.95-.41,8.37-.41,16.13A5.83,5.83,0,0,0,54.74,77.06Z" style="fill:#60295e"/><path d="M64.89,55.32l.2.23v.17c0,.19-.63.29-1.89.29H61.31q-.1,0-.2.24l.13,3.09c0,.28-.07.44-.07.47q.61,10.21.61,14.63a.39.39,0,0,1,.07.18.32.32,0,0,0-.07.17l.07.4c-.07.16-.14.24-.2.24h-.27s-.14-.08-.27-.24,0-.29.07-.64q0-1.45-.61-14.58,0-2.14-.14-3.9L60.3,56h-.2l-2.16.18a.72.72,0,0,1-.2-.52c0-.07.09-.15.27-.24a4.4,4.4,0,0,0,.54.12c.87-.08,1.47-.12,1.82-.12h2.77A13.51,13.51,0,0,0,64.89,55.32Z" style="fill:#60295e"/><path d="M61.65,75.67h-.27c-.13,0-.25-.08-.45-.32l-.06-.06V75.2a6.32,6.32,0,0,1,.07-.67c0-.92-.21-5.82-.61-14.54,0-1.37,0-2.62-.12-3.74H60.1l-2.26.19-.08-.08a1,1,0,0,1-.26-.68c0-.22.21-.35.4-.45l.08,0,.08,0,.49.11q1.28-.12,1.81-.12h2.77a13.29,13.29,0,0,0,1.72-.11l.12,0,.34.4v.26c0,.34-.34.52-2.12.52H61.37l0,0,.13,3c0,.3-.06.44-.07.49.4,6.71.6,11.62.61,14.57a.54.54,0,0,1,.07.24v.07l0,.06a.15.15,0,0,0,0,.05l.08.42,0,.06C62,75.39,61.9,75.67,61.65,75.67Zm-.22-.47h.15l0,0-.05-.33a.51.51,0,0,1,0-.24l0,0,0-.06v-.06c0-2.94-.2-7.86-.61-14.62A3.82,3.82,0,0,1,61,59.3l-.14-3.09,0,0c0-.09.16-.38.42-.38H63.2a5.53,5.53,0,0,0,1.66-.13h0l-.06-.08a13.4,13.4,0,0,1-1.66.1H60.37c-.34,0-.95,0-1.8.12a2.17,2.17,0,0,1-.53-.1l-.07,0A.54.54,0,0,0,58,56l2.31-.18.3.15v.13c.09,1.17.14,2.49.14,3.92.41,8.83.61,13.61.61,14.58,0,.31-.06.47-.06.56Z" style="fill:#60295e"/><path d="M33.16,80.31h.11a1.92,1.92,0,0,0,1,.34,3.65,3.65,0,0,1,1.77,1.6,10.45,10.45,0,0,1,1,3.48v.57q0,3.74-2.17,5.42,2.51.61,2.91,5.93v2.17q0,.48.06,1.42l-.17.12H37.5l-.23-.17q-.06-1.14-.06-1.71V97.42A8.73,8.73,0,0,0,35.9,93a2.56,2.56,0,0,0-1.6-.86h-.06c0,.82.06,1.43.06,1.83v2.17c.08,1.88.11,2.95.11,3.2v.11a.36.36,0,0,1-.34.23c-.06,0-.15-.08-.29-.23l.06-.4q-.11-2.41-.11-3.19V92.46a.35.35,0,0,1-.34-.23v-.17c.08-.15.17-.23.29-.23q-.28-7.83-.74-11.35Zm.46.8q.34,4.17.63,10.33a5.44,5.44,0,0,0,2.22-4.85v-.8A8.57,8.57,0,0,0,35.21,82a2.67,2.67,0,0,0-1.42-.86Z" style="fill:#60295e"/><path d="M37.74,101.6h-.32l-.38-.29v-.11c0-.76-.06-1.34-.06-1.72V97.42a8.5,8.5,0,0,0-1.26-4.24,2.71,2.71,0,0,0-1.22-.75c0,.69,0,1.21,0,1.57v2.17c.08,1.86.11,2.94.11,3.2l0,.22a.59.59,0,0,1-.55.35c-.14,0-.27-.08-.46-.3l-.07-.08.07-.5c-.08-1.56-.12-2.64-.12-3.16V92.65a.59.59,0,0,1-.32-.32l0-.1,0-.28a.67.67,0,0,1,.25-.29c-.19-5.1-.43-8.85-.73-11.15l0-.13.4-.3h.31l.07.09s.13.13.88.26a3.89,3.89,0,0,1,1.94,1.71,10.6,10.6,0,0,1,1,3.6v.57a6.91,6.91,0,0,1-1.93,5.33c1.52.63,2.42,2.65,2.67,6v2.19c0,.32,0,.79.06,1.41v.13Zm-.17-.47h0c0-.56-.05-1-.05-1.3V97.65c-.25-3.41-1.17-5.33-2.73-5.71l-.48-.12.39-.3c1.38-1.07,2.08-2.83,2.08-5.23v-.57a10.31,10.31,0,0,0-1-3.39,3.41,3.41,0,0,0-1.64-1.47,2.45,2.45,0,0,1-1-.3l0,0c.3,2.35.54,6.13.73,11.24v.24h-.24s0,0-.05.06v.05a.11.11,0,0,0,.11.05H34v3.66c0,.51,0,1.59.11,3.18l0,.33a.4.4,0,0,0,.09.08s0,0,.05-.07v-.05c0-.17,0-.86-.11-3.18V94c0-.39,0-1-.06-1.82v-.24h.25a2.72,2.72,0,0,1,1.81.92l0,.05a9,9,0,0,1,1.34,4.51v2.05c0,.36,0,.89.05,1.59ZM34,91.86l0-.42c-.19-4.09-.4-7.56-.63-10.32l0-.26h.43a2.77,2.77,0,0,1,1.58.92l0,.06a8.83,8.83,0,0,1,1.28,3.93v.8a5.68,5.68,0,0,1-2.33,5Zm-.16-10.51c.21,2.62.41,5.86.58,9.63a5.36,5.36,0,0,0,1.78-4.39v-.8A8.38,8.38,0,0,0,35,82.11,2.84,2.84,0,0,0,33.87,81.35Z" style="fill:#60295e"/><path d="M40.95,82h.11q.4,0,.4,3v.74q0,1.11-.34,5.76a1.93,1.93,0,0,0,.06.46q-.06,3-.06,4.73v3.71a3.18,3.18,0,0,0,.11.57c0,.27-.13.4-.23.4h-.23c-.15,0-.23-.52-.23-1.54q0-9.9.34-13.64v-1.6a15.22,15.22,0,0,0-.17-2.39C40.72,82.13,40.79,82.06,40.95,82Z" style="fill:#60295e"/><path d="M41,101.6h-.23c-.35,0-.46-.43-.46-1.77,0-6.58.12-11.18.34-13.66V84.59a15.44,15.44,0,0,0-.17-2.36.55.55,0,0,1,.33-.46l.05,0h.18c.35,0,.63.25.63,3.26v.74c0,.75-.11,2.64-.34,5.78a1.55,1.55,0,0,0,.05.38V92c0,2-.06,3.56-.06,4.73v3.71a3,3,0,0,0,.11.51v.1C41.44,101.15,41.36,101.6,41,101.6Zm-.13-.47h.07a1,1,0,0,0,0-.16,2.69,2.69,0,0,1-.11-.58V96.68c0-1.17,0-2.75.06-4.71a2,2,0,0,1-.06-.48c.23-3.1.34-5,.34-5.76V85A8.43,8.43,0,0,0,41,82.21l0,0a15.35,15.35,0,0,1,.16,2.35v1.6c-.23,2.49-.34,7.07-.34,13.64A5.52,5.52,0,0,0,40.87,101.13Z" style="fill:#60295e"/><path d="M46.41,82.65h.11a2.05,2.05,0,0,1,1.71.8v.11c0,.06-.08.14-.23.23a2.88,2.88,0,0,1-.74-.4,1.92,1.92,0,0,0-.8-.17h-.23q-1.71.42-1.71,9.76a17.24,17.24,0,0,0,1,6.73,2.32,2.32,0,0,0,1.31,1.09h.23c.68-.13,1-.42,1-.86q.2,0,.57-3.42v-2.8l-.06-.28s-.06,0-.06.06q-2.28-.18-2.28-.34l-.06-.29V92.8c0-.06.06-.11.17-.17h.17A10.85,10.85,0,0,0,49,93a1.66,1.66,0,0,1,.23,1.08v1.43q0,.33-.06.91a.43.43,0,0,1,.06.17q-.39,4.5-1.31,4.51c0,.08-.29.17-.85.29h-.23a3.07,3.07,0,0,1-1.66-1.08Q44,97.89,44,92.92q0-9.4,1.88-10.21Z" style="fill:#60295e"/><path d="M47.12,101.6h-.25A3.28,3.28,0,0,1,45,100.43c-.88-1.66-1.31-4.17-1.31-7.51,0-6.43.66-9.84,2-10.42l.07,0,.71-.06a2.3,2.3,0,0,1,1.9.89l0,.06v.19c0,.19-.17.33-.34.43l-.05,0H48c-.1,0-.23,0-.87-.44a1.69,1.69,0,0,0-.67-.13h-.23c-.52.13-1.48,1.55-1.48,9.52a17.19,17.19,0,0,0,1,6.63,2.07,2.07,0,0,0,1.15.94h.18c.79-.16.79-.5.79-.62V99.7H48a23,23,0,0,0,.46-3.22V93.71c-2.4-.18-2.4-.32-2.4-.57L46,92.8c0-.15.1-.28.3-.38l.11,0h.25l.06,0a13.29,13.29,0,0,0,2.33.29h.09l.06.06a1.81,1.81,0,0,1,.29,1.25v1.43c0,.21,0,.51-.05.87a.58.58,0,0,1,.05.21c-.33,3.88-.92,4.64-1.42,4.73a2.59,2.59,0,0,1-.94.29ZM45.9,82.94c-.79.38-1.71,2.44-1.71,10,0,3.26.41,5.7,1.23,7.25a2.83,2.83,0,0,0,1.5,1h.15a4.91,4.91,0,0,0,.65-.16v-.12H48c.12,0,.73-.21,1.08-4.28h0l0-.06,0-.06v-.07c0-.38.06-.68.06-.89V94.06a2,2,0,0,0-.12-.86,10.5,10.5,0,0,1-2.39-.33h0l0,.14a12.12,12.12,0,0,0,2,.24.27.27,0,0,1,.17,0h.19l.09.47v2.84a13.8,13.8,0,0,1-.58,3.54c0,.37-.3.79-1.21,1h-.36a2.56,2.56,0,0,1-1.44-1.2A17.54,17.54,0,0,1,44.29,93c0-8.54,1.08-9.79,1.89-10h.28a2.11,2.11,0,0,1,.9.2,6.81,6.81,0,0,0,.61.35h0a1.82,1.82,0,0,0-1.46-.64h-.11Z" style="fill:#60295e"/><path d="M55.34,81.31h.13c.15,0,.27.25.36.74q-.06,1.48-.06,2.27a104.87,104.87,0,0,0,.61,11.39A49.71,49.71,0,0,0,57,101v.07c0,.06-.06.11-.18.17h-.19q-.48,0-.8-5.08-.3-2.84-.3-3.56a.05.05,0,0,1-.06-.06c-.76,0-1.31.06-1.65.06H53.2q-.13,3.74-.13,5,0,1.59.13,3.62l-.25.19c-.28,0-.43-.19-.43-.56s0-1.62-.06-3.55q.19-6.45.49-11.71v-.19a9.21,9.21,0,0,0-.06-.92,2,2,0,0,0,.06-.43l-.06-.62c0-.39.06-.78.06-1.17,0,0,0-.25-.06-.61l.24-.17h.19c.12,0,.2.22.24.67,0,.71-.06,1.16-.06,1.34q0,.75.06,2.82-.3,4.33-.3,5.7h.91c.27,0,.68,0,1.23-.05v-.24q-.24-3-.24-7.43,0-.5.06-2.2a1.47,1.47,0,0,1-.11-.56Z" style="fill:#60295e"/><path d="M53,101.6h-.07c-.2,0-.66-.08-.66-.79q0-.65-.06-3.55c.12-4.3.29-8.24.49-11.72v-.17a8.54,8.54,0,0,0-.06-.9v-.07a1.86,1.86,0,0,0,.05-.38l-.06-.59c0-.43.06-.82.06-1.19,0,0,0-.25-.06-.59V81.5l.42-.29h.26c.4,0,.45.59.48.88,0,.74-.06,1.18-.06,1.36,0,.5,0,1.44.06,2.82-.18,2.66-.28,4.49-.3,5.48h.67l1,0v0c-.16-2-.24-4.51-.24-7.43q0-.5.06-2.16a1.7,1.7,0,0,1-.11-.6v-.11l.4-.31h.21c.38,0,.51.5.59.94,0,1-.05,1.79-.05,2.31a104.61,104.61,0,0,0,.61,11.37,49.16,49.16,0,0,0,.61,5.25v.12c0,.24-.24.35-.32.39l-.1,0h-.19c-.31,0-.7,0-1-5.3-.18-1.7-.28-2.82-.29-3.39-.68,0-1.17,0-1.48,0h-.39c-.08,2.4-.12,3.95-.12,4.73,0,1,0,2.25.13,3.61v.13Zm.1-17.15a9.13,9.13,0,0,1,.06.91v.19C53,89,52.82,93,52.7,97.26c0,1.92.06,3.11.06,3.55,0,.24.06.3.13.32l.08-.06c-.08-1.31-.12-2.49-.12-3.51,0-.81,0-2.44.13-5v-.23h.84c.33,0,.87,0,1.64-.06h.25v.07h.06v.23c0,.47.1,1.66.3,3.54.24,3.92.52,4.71.63,4.87h.08a48.54,48.54,0,0,1-.61-5.26,105.45,105.45,0,0,1-.61-11.41c0-.52,0-1.29.06-2.28a1.2,1.2,0,0,0-.16-.5l-.09.07a1.32,1.32,0,0,0,.09.36l0,0v0c0,1.13-.06,1.86-.06,2.19,0,2.91.08,5.4.24,7.41v.48l-.22,0c-.57,0-1,.06-1.24.06H53V92c0-.92.1-2.84.3-5.72,0-1.36-.06-2.3-.06-2.8q0-.27.06-1.35a1.41,1.41,0,0,0-.08-.42h0l-.07.05c0,.29,0,.46,0,.5,0,.39,0,.79-.06,1.19l.06.57A2,2,0,0,1,53.12,84.45Z" style="fill:#60295e"/><path d="M64.31,82.79l.17.2v.14c0,.16-.53.24-1.6.24h-1.6c-.06,0-.11.07-.17.2l.11,2.61c0,.24-.06.37-.06.4q.51,8.63.51,12.36a.37.37,0,0,1,.06.16.28.28,0,0,0-.06.14l.06.34c-.06.13-.11.2-.17.2h-.23s-.11-.07-.23-.2,0-.25.06-.54q0-1.23-.51-12.32,0-1.81-.12-3.3l-.11-.06h-.17l-1.83.16a.62.62,0,0,1-.17-.44c0-.05.08-.12.23-.2L59,83c.73-.06,1.24-.1,1.54-.1h2.34A11.49,11.49,0,0,0,64.31,82.79Z" style="fill:#60295e"/><path d="M61.57,100h-.23c-.14,0-.25-.1-.41-.28l-.06-.07v-.08c0-.07,0-.26.06-.57,0-.78-.18-4.92-.52-12.28,0-1.14,0-2.19-.1-3.13h-.06l-1.92.17-.08-.08a.86.86,0,0,1-.23-.6c0-.2.19-.33.36-.41l.08,0,.08,0,.41.09c.7-.06,1.22-.1,1.53-.1h2.34a11.26,11.26,0,0,0,1.45-.1l.13,0,.31.36v.23c0,.36-.44.48-1.83.48H61.35l.11,2.55c0,.25-.05.38-.06.42.34,5.66.51,9.8.51,12.3a.49.49,0,0,1,.06.22v.07l0,.06,0,.39,0,.06C61.92,99.77,61.81,100,61.57,100Zm-.17-.47h.1l0-.27a.48.48,0,0,1,0-.21h0l0-.05v-.06c0-2.48-.17-6.64-.51-12.35,0,0,0-.19.06-.45l-.12-2.62,0,0c0-.08.15-.34.39-.34h1.6A5.73,5.73,0,0,0,64.23,83h0a11.29,11.29,0,0,1-1.39.09H60.49c-.29,0-.8,0-1.52.1a1.94,1.94,0,0,1-.44-.08h0a.4.4,0,0,0,0,.13l1.94-.15.28.14v.13c.08,1,.11,2.11.11,3.32.35,7.46.51,11.5.51,12.32,0,.22,0,.37-.05.46Z" style="fill:#60295e"/><path d="M65,100h.23c.06,0,.14.08.23.23v.23c-.24.3-.43.46-.57.46s-.27-.15-.29-.23v-.17C64.79,100.18,64.92,100,65,100Z" style="fill:#60295e"/><path d="M64.92,101.11l-.1,0c-.16-.07-.37-.18-.42-.39v-.29l0,0a1.36,1.36,0,0,1,.51-.62l.1,0h.23c.19,0,.32.17.43.34l0,.06v.38l-.05.06C65.38,100.94,65.14,101.11,64.92,101.11Zm-.05-.54.08,0a1.07,1.07,0,0,0,.31-.29v-.08l0-.06h-.1a1.47,1.47,0,0,0-.23.34Z" style="fill:#60295e"/></g></g></svg>