<svg xmlns="http://www.w3.org/2000/svg" viewBox="0 0 3.07 79.43"><title>Asset 2</title><g id="Layer_2" data-name="Layer 2"><g id="Layer_4" data-name="Layer 4"><path d="M1.41,79.21c-.08-.17,0-.34.11-.5a1.28,1.28,0,0,0,.19-.49c0-.28.1-.56.13-.84a6.23,6.23,0,0,0,0-.88c0-.3-.08-.59-.09-.89s.05-.4.06-.6,0-.3,0-.45c0-.31.06-.63.07-.94,0-.11-.08-.23-.09-.34s0-.5,0-.75,0-.39,0-.58-.1-.54-.15-.81-.07-.54-.12-.81-.15-.7-.2-1.05-.06-.6-.09-.9.1-.37-.07-.55c0,0,0,0,0,0,0-.24,0-.48,0-.72S1,66.29,1,65.89a5.16,5.16,0,0,1,0-.55c0-.24,0-.48,0-.71a5.26,5.26,0,0,0,.05-.81,6.82,6.82,0,0,1-.16-.89c0-.31,0-.63,0-.95s0-.52,0-.78-.05-.53-.08-.8c0-.1,0-.21-.05-.31l-.09-.41c0-.24-.1-.49-.15-.73s-.11-.42-.15-.63-.08-.54-.15-.81A3.06,3.06,0,0,1,0,56.64q0-.71.07-1.43a1.68,1.68,0,0,1,0-.26c0-.25.11-.5.14-.76a5,5,0,0,0,0-1.45,4.14,4.14,0,0,1,0-.88c0-.49.07-1,.11-1.46a14.14,14.14,0,0,0,.06-2.35c0-.52,0-1,0-1.56,0-.32,0-.65,0-1S.32,44.63.3,44.18c0-.21,0-.41,0-.62a.62.62,0,0,0,0-.09,5.81,5.81,0,0,1-.23-1,6.88,6.88,0,0,1,.06-1.11c0-.38.08-.76.11-1.14a4,4,0,0,0,0-.84,4.71,4.71,0,0,1,0-1.21.89.89,0,0,1,.21-.59s0-.12,0-.18c0-.23,0-.46,0-.7a2,2,0,0,0,0-.43,1.6,1.6,0,0,1,.08-.76c0-.15.16-.3.2-.46a7.17,7.17,0,0,0,.13-.84,2.44,2.44,0,0,0,0-.55c0-.21-.1-.42-.12-.63a4.18,4.18,0,0,1,0-.45c0-.52,0-1,0-1.56A5.07,5.07,0,0,1,.88,30,4.07,4.07,0,0,0,1,29c0-.18,0-.37,0-.55s0-.31,0-.46,0-.6,0-.89S1,26.4,1,26c0-.16,0-.31,0-.47s0-.31,0-.47a5.8,5.8,0,0,1,0-.61c0-.25.1-.49.14-.74s0-.39,0-.58,0-.38.05-.57a3.17,3.17,0,0,0,.12-1,.86.86,0,0,1,0-.18,3,3,0,0,0,0-.5,1.73,1.73,0,0,1,0-.68c.08-.27.14-.53.2-.8,0-.08,0-.16,0-.24a2.93,2.93,0,0,0,.23-1.26c0-.29,0-.58,0-.86s0-.58,0-.86.05-.38.07-.57c0-.42.06-.84.08-1.25,0-.12,0-.25,0-.37s0-.5,0-.75,0-.28.05-.42.08-.57.13-.86a2.14,2.14,0,0,1,.17-.66,1.57,1.57,0,0,0,.09-1c0-.33-.1-.66-.14-1a2.34,2.34,0,0,0-.05-.53,4.06,4.06,0,0,1-.25-1,2.22,2.22,0,0,1,0-.32,6.53,6.53,0,0,1,0-.66c0-.23.09-.45.12-.68s0-.23,0-.34c0-.35.09-.71.14-1.07a4.31,4.31,0,0,1,.09-.61,2.57,2.57,0,0,0,.11-1.18,6.11,6.11,0,0,1,0-1.19c0-.07,0-.14,0-.21s0-.22,0-.32,0-.39,0-.58A.34.34,0,0,0,2.2.21c-.08,0,0-.12,0-.19a.4.4,0,0,1,.17,0,.87.87,0,0,1,.21.07c.29.12.38.27.38.45a4.62,4.62,0,0,0,0,.57A8.62,8.62,0,0,0,3,2.45c-.11.64-.22,1.28-.32,1.93a9.48,9.48,0,0,0-.11,1c0,.31,0,.62,0,.93a7.68,7.68,0,0,0,.08,1.12,4.43,4.43,0,0,1,.06,1c0,.08-.08.15,0,.23s0,.44.23.64c0,0,0,.07,0,.1a1.19,1.19,0,0,0,0,.7c.06.35.06.71.15,1.06a3.49,3.49,0,0,1,0,1.05c0,.26-.06.53-.07.79s0,.6,0,.9-.07.63-.11.94c0,.06,0,.12,0,.18,0,.28,0,.57,0,.85s-.05.49-.07.73c-.06.65-.11,1.3-.16,2,0,.26,0,.51-.06.76s0,.27,0,.4c0,.4.06.79,0,1.19a13.92,13.92,0,0,0-.1,1.56c0,.05,0,.11,0,.16a4.2,4.2,0,0,0-.09.79,6.78,6.78,0,0,1-.1,1.08c0,.11,0,.23,0,.34,0,.32-.12.63-.14.94A12.6,12.6,0,0,0,2,27.94a3.27,3.27,0,0,1-.12.82c0,.1,0,.19,0,.29s0,.45,0,.68c0,0,0,.1,0,.14a2,2,0,0,1,0,.28c0,.07,0,.14,0,.21s0,.42,0,.63-.07.64-.09,1c0,.11,0,.22,0,.32s-.08.5-.1.74.06.22,0,.32c0,.35-.11.69-.16,1s-.11,1-.17,1.44c0,.24,0,.49-.08.73s-.1.43-.12.64c0,.42-.07.83-.1,1.25s-.1,1-.13,1.45c0,.29,0,.59,0,.88,0,.08,0,.15,0,.23s0,.39,0,.59,0,.48,0,.73c0,.09-.06.17-.05.26,0,.41.1.83.17,1.25,0,.1.09.2.1.31,0,.28,0,.56.06.85s.06.58.09.88a.87.87,0,0,0,0,.11c0,.17.07.34.09.52a3,3,0,0,0,.07.5,1,1,0,0,1,0,.57,2.66,2.66,0,0,0-.07.48c0,.15.07.31,0,.45a1.87,1.87,0,0,0-.09.84c0,.25,0,.5,0,.75a1.84,1.84,0,0,0,0,.3,3.73,3.73,0,0,1,0,.75,7,7,0,0,1-.09.75c0,.2-.09.4-.13.59S1,52.81,1,53a2,2,0,0,0-.07.27c0,.36,0,.71,0,1.06A2.53,2.53,0,0,0,1,55,3.22,3.22,0,0,1,1.08,56a1.4,1.4,0,0,0,.06.36c0,.15.07.29.1.44s.08.5.11.75a1.65,1.65,0,0,1,.05.52,1.28,1.28,0,0,0,0,.35c0,.32,0,.63,0,.94s0,.59,0,.88.07.62.1.92c0,.11,0,.22,0,.32a7,7,0,0,1,.17,1.19c0,.26,0,.52,0,.78,0,.54,0,1.08,0,1.63s0,.79,0,1.19a.49.49,0,0,0,.09.33.25.25,0,0,1,.06.24.93.93,0,0,0,0,.35c0,.2.14.39.16.58.07.54.12,1.08.17,1.61l0,.44c0,.18,0,.36.05.54s0,.45,0,.68.11.52.16.78.08.54.12.81.26.63.18,1a1.91,1.91,0,0,0,0,.47c0,.17,0,.34,0,.52s0,.3,0,.45.06.12.06.17c0,.28-.12.55,0,.83,0,0,0,0,0,.06a.89.89,0,0,0-.06.19c0,.41-.09.81-.14,1.22,0,.07,0,.14,0,.21s-.09.4-.13.6,0,.13,0,.19c-.06.23-.14.45-.18.67s-.12.21-.44.24C1.6,79.36,1.45,79.29,1.41,79.21Zm.4-56.65H1.75l0,.12H1.8S1.81,22.61,1.81,22.57Z" style="fill:#60295e;fill-rule:evenodd"/></g></g></svg>