<svg xmlns="http://www.w3.org/2000/svg" xmlns:xlink="http://www.w3.org/1999/xlink" viewBox="0 0 126.48 127.32"><defs><clipPath id="clip-path"><path d="M41.1,26l-1,.56V95.51l23.15,11.25L86.39,95.51V26.56l-1-.55a46.55,46.55,0,0,0-22.13-5.34A46.88,46.88,0,0,0,41.1,26" style="fill:none"/></clipPath><linearGradient id="linear-gradient" x1="-366.85" y1="401.65" x2="-366.3" y2="401.65" gradientTransform="translate(30889.88 -33712.47) scale(84.09)" gradientUnits="userSpaceOnUse"><stop offset="0" stop-color="#bf8d2c"/><stop offset="0.05" stop-color="#c39332"/><stop offset="0.12" stop-color="#cfa546"/><stop offset="0.2" stop-color="#debf64"/><stop offset="0.29" stop-color="#f8e48c"/><stop offset="0.29" stop-color="#f8e78f"/><stop offset="0.64" stop-color="#f4cf69"/><stop offset="1" stop-color="#bf8d2c"/></linearGradient><clipPath id="clip-path-2"><path d="M41.59,26.89l-.49.27V94.88l22.14,10.77L85.39,94.88V27.16l-.5-.27a46.11,46.11,0,0,0-21.65-5.21,45.81,45.81,0,0,0-21.65,5.21" style="fill:none"/></clipPath><linearGradient id="linear-gradient-2" x1="-367.05" y1="404.43" x2="-366.5" y2="404.43" gradientTransform="matrix(-146.66, 0, 0, -146.66, -53728.03, 59378.65)" xlink:href="#linear-gradient"/><clipPath id="clip-path-3"><path d="M66,74h0c-.89.06-1.78,0-2.71,0s-1.82.05-2.71,0-.61.37-.17.67a5,5,0,0,0,2.83.87h.09a5,5,0,0,0,2.84-.87c.42-.28.61-.68,0-.68H66m-14.53-4.7a14.35,14.35,0,0,0,9.89,6.09c.32,0,.33,0,0-.06a14.31,14.31,0,0,1-2.92-1.57l-.24-.14a27.78,27.78,0,0,1-6.61-4.39c-.11-.09-.18-.13-.21-.13s0,.08.06.2m23.49-.07h0a27.82,27.82,0,0,1-6.61,4.39l-.24.13a14.74,14.74,0,0,1-2.92,1.57c-.29.1-.29.1,0,.06a14.36,14.36,0,0,0,9.89-6.1c.07-.11.1-.19.05-.19s-.1,0-.21.13m-22.77-.6h0c-.43.91,4.22,4.37,5.1,3.64.36-.3-1.44-3.92-2-4.83a.56.56,0,0,0-.52-.23,3.88,3.88,0,0,0-2.6,1.42m19.07-1.2c-.54.91-2.34,4.54-2,4.84.88.72,5.53-2.73,5.1-3.64h0a3.88,3.88,0,0,0-2.6-1.42.56.56,0,0,0-.53.23m-14.69-1c-.94,1.57,1.06,5.75,2.67,6.56a8.38,8.38,0,0,0,4,.77,8.37,8.37,0,0,0,4-.77c1.6-.8,3.61-5,2.67-6.55-.8-1.33-4.74-4-6.71-4s-5.91,2.72-6.71,4M65,61.14h0c0,1.12,4.58,3.93,5.34,3.25.58-.5.7-1.62.7-3.25s-.13-2.75-.7-3.25a.52.52,0,0,0-.35-.1c-1.31,0-5,2.36-5,3.35m-9-3.26h0c-.57.5-.7,1.63-.7,3.25s.13,2.75.7,3.25c.76.67,5.34-2.14,5.35-3.25s-3.68-3.35-5-3.35a.53.53,0,0,0-.35.1M72,56.77a16.12,16.12,0,0,0-.29,4.37A16.74,16.74,0,0,0,72,65.51c.25.55,2.57,3,3.59,2,1.63-1.54,2-3.93,2-6.41s-.35-4.88-2-6.41h0a.83.83,0,0,0-.58-.22c-1.14,0-2.8,1.8-3,2.26m-21-2c-1.63,1.54-2,3.93-2,6.41s.36,4.87,2,6.41c1,1,3.34-1.49,3.59-2h0a15.87,15.87,0,0,0,.3-4.37,16.6,16.6,0,0,0-.3-4.37c-.2-.46-1.87-2.26-3-2.26a.82.82,0,0,0-.58.22M69.23,50c-.37.3,1.44,3.92,2,4.83.44.73,2.78-.45,3.13-1.19h0c.39-.82-3.4-3.74-4.77-3.74a.5.5,0,0,0-.33.1M52.15,53.68h0c.35.74,2.69,1.92,3.12,1.19.54-.91,2.34-4.54,2-4.84a.51.51,0,0,0-.34-.1c-1.37,0-5.15,2.92-4.76,3.74m7-4.33c-1.6.8-3.61,5-2.67,6.55.8,1.33,4.74,4,6.71,4s5.92-2.72,6.71-4c1-1.57-1-5.75-2.66-6.56h0a8.37,8.37,0,0,0-4-.77,8.39,8.39,0,0,0-4,.77m2.12-2.42A14.33,14.33,0,0,0,51.41,53h0c-.13.18-.12.3.16.06a27.81,27.81,0,0,1,6.61-4.39l.24-.14A14.83,14.83,0,0,1,61.34,47c.18-.06.25-.09.19-.09l-.23,0m3.84.06a14.28,14.28,0,0,1,2.92,1.57h0l.24.14a27.9,27.9,0,0,1,6.61,4.39c.27.23.29.12.15-.06a14.34,14.34,0,0,0-9.88-6.09l-.23,0c-.06,0,0,0,.19.09m-1.94-.22a5.08,5.08,0,0,0-2.83.88c-.44.3-.64.73.17.67h0c.89-.06,1.78,0,2.71,0s1.82-.05,2.71,0,.61-.37.17-.67a5.08,5.08,0,0,0-2.84-.88Z" style="fill:none"/></clipPath><linearGradient id="linear-gradient-3" x1="-367.14" y1="400.52" x2="-366.59" y2="400.52" gradientTransform="translate(19124.76 -20748.82) scale(51.96)" gradientUnits="userSpaceOnUse"><stop offset="0" stop-color="#c28f2c"/><stop offset="0.05" stop-color="#c69533"/><stop offset="0.13" stop-color="#d1a545"/><stop offset="0.21" stop-color="#e2be63"/><stop offset="0.31" stop-color="#f8e38c"/><stop offset="0.32" stop-color="#fae891"/><stop offset="0.64" stop-color="#f4cf6a"/><stop offset="1" stop-color="#c28f2c"/></linearGradient></defs><title>Asset 3</title><g id="Layer_2" data-name="Layer 2"><g id="Layer_3" data-name="Layer 3"><g style="clip-path:url(#clip-path)"><rect x="40.09" y="20.67" width="46.3" height="86.1" style="fill:url(#linear-gradient)"/></g><g style="clip-path:url(#clip-path-2)"><rect x="16.69" y="20" width="93.1" height="87.33" transform="translate(-26.05 72.59) rotate(-50.9)" style="fill:url(#linear-gradient-2)"/></g><path d="M42,94.29l21.2,10.31,21.2-10.31V27.45a45.82,45.82,0,0,0-21.2-4.83A44.57,44.57,0,0,0,42,27.72Z" style="fill:#1a325d"/><path d="M69.14,40.91q0,1.34-1.83,1.61l-.12-.72q1.1-.2,1.1-.87a.48.48,0,0,0-.54-.55h-1.1v3.66h-.81V39.69h2q1.33,0,1.33,1.23m-4.7,1.42a1.07,1.07,0,0,1-2.14,0V39.69h-.81v2.65q0,1.75,1.88,1.75t1.88-1.75V39.69h-.81v2.65Zm-7.11-.53q0,2.28,2.36,2.28A3.55,3.55,0,0,0,61,43.87v-.73a3,3,0,0,1-1.22.25,1.39,1.39,0,0,1-1.57-1.58q0-1.45,1.58-1.45A3,3,0,0,1,61,40.6v-.73a3.59,3.59,0,0,0-1.28-.21q-2.35,0-2.36,2.15ZM52.82,30.35a1,1,0,0,1,.71-.31.48.48,0,0,1,.55.55v1.54h.43V30.58a.81.81,0,0,0-.92-.91,1.26,1.26,0,0,0-.83.31l-.08-.31h-.3v2.46h.43V30.34ZM52,28.78h-.43v3.35H52V28.78Zm3.54,3.35h.41v-.35h-.3c-.2,0-.3-.12-.3-.34V30h.6v-.35h-.66l-.09-.4h-.27v2.19c0,.44.2.66.62.66Zm11.61-1.21c0-.82.39-1.23,1.17-1.23s1.17.41,1.17,1.23-.39,1.23-1.17,1.23-1.17-.41-1.17-1.22Zm.43,0c0,.59.25.89.74.89s.74-.3.74-.89-.24-.87-.74-.87-.74.29-.74.87ZM75,28.78h-.44v3.35H75V28.78Zm-8.13,0h-.43v.41h.43v-.41Zm0,.89h-.43v2.46h.43V29.67Zm-4.25,1.72q0-.76,1-.76a4.6,4.6,0,0,1,.64,0v-.23c0-.28-.22-.42-.66-.42a2.65,2.65,0,0,0-.77.12v-.35a2.77,2.77,0,0,1,.77-.11c.73,0,1.09.25,1.09.76v1.69H64.4l-.15-.24a1.43,1.43,0,0,1-.8.24c-.59,0-.88-.24-.88-.74m.43,0c0,.26.16.4.44.4a1.2,1.2,0,0,0,.76-.24V31a4.41,4.41,0,0,0-.64,0c-.37,0-.56.13-.56.39Zm-3.91-1a.92.92,0,0,1,.72-.31v-.37A1.09,1.09,0,0,0,59,30L59,29.67h-.29v2.46h.43V30.34Zm11,0a1,1,0,0,1,.71-.31.47.47,0,0,1,.54.54v1.55h.44V30.58a.81.81,0,0,0-.92-.91,1.26,1.26,0,0,0-.83.31L70,29.67h-.29v2.46h.43V30.34Zm3.66,1.55a1.44,1.44,0,0,1-.81.23c-.58,0-.88-.25-.88-.74s.33-.76,1-.76a4.61,4.61,0,0,1,.64,0v-.23c0-.28-.22-.42-.66-.42a2.67,2.67,0,0,0-.77.12v-.35a2.79,2.79,0,0,1,.77-.11c.73,0,1.1.25,1.1.76v1.69h-.25Zm0-.86a4.47,4.47,0,0,0-.64,0c-.38,0-.57.13-.57.4s.15.4.44.4a1.23,1.23,0,0,0,.76-.24Zm-13.15-.69a1,1,0,0,1,.71-.31.48.48,0,0,1,.54.55v1.54h.44V30.58a.81.81,0,0,0-.92-.91,1.26,1.26,0,0,0-.83.31l-.08-.31h-.29v2.46h.43V30.34Zm-4.45.52q0-1.2,1.13-1.2a.92.92,0,0,1,1,1,1.82,1.82,0,0,1,0,.31H56.57c0,.5.29.75.88.75a2.63,2.63,0,0,0,.74-.09V32a3,3,0,0,1-.79.1,1.11,1.11,0,0,1-1.26-1.25Zm.43-.21H57.9c0-.43-.22-.65-.63-.65a.62.62,0,0,0-.7.65m9,1.46H66v-.35h-.29c-.2,0-.3-.12-.3-.35V30H66v-.35h-.66l-.09-.4H65v2.19c0,.45.21.67.62.67m-9.4,1.78h-.88l-1.86,4.37h.83l1.44-3.54.69,1.64h-.88l-.28.7h1.45l.5,1.19h.87Zm-3.83,1.8H50.22v-1.8h-.81v4.37h.81V36.42h2.16v1.87h.81V33.91h-.81ZM45.26,36a2,2,0,0,0,2.35,2.28,3.65,3.65,0,0,0,1.29-.21v-.74a3,3,0,0,1-1.23.24A1.39,1.39,0,0,1,46.1,36q0-1.46,1.58-1.45a3.08,3.08,0,0,1,1.23.24V34.1a3.61,3.61,0,0,0-1.29-.22q-2.35,0-2.35,2.16Zm17,2.25H63V33.91h-.81l-1.45,3.32-1.49-3.32h-.84v4.37h.75v-3l1.21,3H61l1.2-3v3ZM76.48,37.1l-2.31-3.19h-.81v4.37h.77V35l2.31,3.25h.81V33.91h-.77Zm3.31-1.38h-.68c-.35,0-.53-.16-.53-.49s.37-.64,1.1-.64a4,4,0,0,1,1.39.24V34.1a4.48,4.48,0,0,0-1.39-.22q-1.91,0-1.91,1.35t1.34,1.22h.69c.41,0,.62.16.62.49s-.34.67-1,.67a4.21,4.21,0,0,1-1.49-.25v.74a4.81,4.81,0,0,0,1.49.21q1.82,0,1.82-1.38,0-1.22-1.44-1.22ZM64.88,36l.12.72q1.83-.28,1.83-1.62T65.49,33.9h-2v4.37h.81V34.62h1.1a.48.48,0,0,1,.54.54q0,.68-1.1.87Zm2.38,2.25h.81V33.91h-.81v4.37Zm5.66-2.18a1.94,1.94,0,0,1-2.17,2.21c-1.4,0-2.13-.74-2.2-2.21a2.18,2.18,0,1,1,4.37,0Zm-.84,0q0-1.51-1.32-1.5t-1.36,1.5q0,1.52,1.36,1.52t1.32-1.53ZM56.34,78.71c0,.31-.22.5-.64.56l0-.25c.25,0,.38-.15.38-.3a.17.17,0,0,0-.14-.19h-.42v1.27H55.2V78.27h.68c.3,0,.46.14.46.43m1.34,0c0-.27-.16-.4-.47-.4h-.68v1.51h.29V78.52h.39a.16.16,0,0,1,.19.12.2.2,0,0,1,0,.05c0,.16-.14.26-.4.31v.13l.46.66h.35l-.48-.65c.24-.12.36-.27.36-.45Zm.53.47h.72V78.9h-.72v-.38H59v-.25h-1v1.51H59v-.24h-.78v-.39Zm1.66-.25h-.23a.15.15,0,0,1-.18-.13s0,0,0,0,.13-.22.38-.22a1.39,1.39,0,0,1,.48.08v-.25a1.55,1.55,0,0,0-.48-.08c-.44,0-.66.15-.66.47s.16.42.46.42h.23c.14,0,.21.05.21.17s-.11.23-.35.23a1.51,1.51,0,0,1-.51-.09v.25a1.61,1.61,0,0,0,.51.07q.63,0,.63-.48c0-.28-.17-.42-.5-.42Zm1,.25h.72V78.9h-.72v-.38h.76v-.25h-1v1.51h1.05v-.24h-.77v-.39Zm2.11.23-.8-1.1H61.9v1.51h.27V78.66l.8,1.13h.28V78.27H63v1.1Zm.43-.86h.43v1.27h.28V78.52h.43v-.25H63.41v.24Zm1.58.63h.72V78.9H65v-.38h.76v-.25h-1v1.51h1.06v-.24H65v-.39ZM67.38,79c0,.53-.25.8-.75.8H66V78.27h.59a.65.65,0,0,1,.75.72Zm-.28,0a.41.41,0,0,0-.47-.47h-.31v1h.31c.31,0,.47-.19.47-.56Zm2.16.35q0,.45-.47.45h-.69V78.27h.71c.29,0,.43.12.43.35A.39.39,0,0,1,69,79a.32.32,0,0,1,.3.34h0Zm-.3,0c0-.16-.09-.24-.28-.24h-.09v-.18c.23,0,.35-.14.35-.29a.13.13,0,0,0-.13-.13h-.44v1h.4a.17.17,0,0,0,.19-.14v0Zm1.53-1.08-.4.73-.43-.73h-.3l.58,1v.53h.28v-.53l.56-1h-.29ZM65.38,89.4a.21.21,0,0,1-.11,0l-.22-.14c-.39-.26-1.34-.91-1.87-1.29-.51.37-1.4,1-1.87,1.29l-.22.14a.19.19,0,0,1-.11,0,.18.18,0,0,1-.11,0l-.05,0-.05,0a.22.22,0,0,1-.06-.21l.07-.25c.15-.56.46-1.57.64-2.17l-1.8-1.38-.2-.17a.21.21,0,0,1-.07-.2.27.27,0,0,1,0-.06l0-.06a.2.2,0,0,1,.18-.12h.26l2.27-.06c.2-.59.56-1.59.76-2.14l.09-.25a.22.22,0,0,1,.17-.13h.13a.21.21,0,0,1,.17.13l.09.24c.2.55.56,1.55.76,2.14.63,0,1.69,0,2.27.06h.26a.21.21,0,0,1,.18.12l0,.06,0,.07a.21.21,0,0,1-.07.2l-.2.16c-.46.36-1.29,1-1.8,1.38.18.6.48,1.62.64,2.18l.07.26a.23.23,0,0,1-.06.21l-.05,0-.06,0a.18.18,0,0,1-.1,0Z" style="fill:#fff"/><path d="M61.8,86.53,61,89.06s0,0,0,0h0l2.15-1.57,2.16,1.56h0s0,0,0,0l-.81-2.53L66.71,85s0,0,0,0h0v0H64l-.82-2.53h-.07l-.82,2.53H59.66v0h0Z" style="fill:#df1f26"/><path d="M68.48,88.51a.23.23,0,0,1-.21.25h0a.21.21,0,0,1-.22-.19s0,0,0,0h.16v0a.06.06,0,0,0,.05.07h0c.07,0,.08-.07.08-.12s0-.12-.13-.11v-.15c.09,0,.13,0,.13-.11a.07.07,0,0,0,0-.09h0a.08.08,0,0,0-.06.08H68a.21.21,0,0,1,.16-.25.21.21,0,0,1,.25.16.19.19,0,0,1,0,.05.2.2,0,0,1-.1.2.18.18,0,0,1,.13.2ZM67.37,88h.23l-.26.71h.18l.32-.85h-.46V88Zm-.27.46a.24.24,0,0,1-.24.24.25.25,0,0,1-.25-.24h0a.21.21,0,0,1,.16-.22.18.18,0,0,1-.11-.18.21.21,0,0,1,.21-.21.21.21,0,0,1,.21.21.18.18,0,0,1-.11.18.21.21,0,0,1,.14.23Zm-.3-.41s0,.1,0,.1.06-.06.06-.09,0-.09-.05-.09,0,.06,0,.09Zm.13.39a.12.12,0,0,0-.08-.12c-.06,0-.07.08-.07.12s0,.12.07.12a.11.11,0,0,0,.08-.12ZM66.08,88h.08v.71h.16v-.85h-.24V88Zm-7.83.35h.16v-.15h-.16v-.19h.19V87.9h-.37v.85h.37V88.6h-.19V88.4Zm2,.16a.11.11,0,0,0-.11.11.11.11,0,0,0,.11.11.1.1,0,0,0,.1-.11h0a.11.11,0,0,0-.1-.11h0Zm-.71-.49h.14v.69h.19v-.69H60V87.9h-.47v.15Zm-.55.06A.08.08,0,0,1,59,88h0a.23.23,0,0,1,.13.05v-.16a.34.34,0,0,0-.16,0,.24.24,0,0,0-.24.22.08.08,0,0,0,0,0,.28.28,0,0,0,.17.25.18.18,0,0,1,.11.12.1.1,0,0,1-.1.09h0a.24.24,0,0,1-.14,0v.16a.31.31,0,0,0,.15,0,.25.25,0,0,0,.27-.23v0c0-.23-.28-.24-.28-.37Zm-1.39,5.46a1.5,1.5,0,0,1-.56.37c-.19.06-.72.11-.87-.33,0-.09,0-.12.08-.15s.46-.13.81-.27a4.19,4.19,0,0,0,.69-.32.3.3,0,0,0,.11-.41h0a1.37,1.37,0,0,0-1.56-.86A1.43,1.43,0,0,0,55.11,93a1.45,1.45,0,0,0,1.16,1.49,1.56,1.56,0,0,0,1.6-.63c.12-.19-.21-.41-.32-.3Zm-1.5-.67c-.07-.18,0-.73.29-.83s.51.05.61.38a.36.36,0,0,1,0,.29.56.56,0,0,1-.25.14l-.24.08c-.23.08-.34.1-.4-.05Zm9.27.67a1.52,1.52,0,0,1-.55.37c-.19.06-.72.11-.87-.33,0-.09,0-.12.08-.15s.47-.13.81-.27a4,4,0,0,0,.69-.32.3.3,0,0,0,.11-.41h0A1.36,1.36,0,0,0,64,91.6,1.42,1.42,0,0,0,62.88,93,1.44,1.44,0,0,0,64,94.5a1.56,1.56,0,0,0,1.6-.63c.13-.19-.21-.41-.32-.3Zm-1.5-.67a.94.94,0,0,1,0-.54.45.45,0,0,1,.25-.29.4.4,0,0,1,.37,0,.58.58,0,0,1,.24.36.37.37,0,0,1,0,.29.57.57,0,0,1-.25.14l-.24.08c-.23.07-.34.09-.4-.06Zm7.42.67a1.56,1.56,0,0,1-.55.37c-.19.06-.72.11-.87-.33,0-.09,0-.12.08-.15s.47-.13.81-.27a4.14,4.14,0,0,0,.69-.32.29.29,0,0,0,.12-.4h0a1.36,1.36,0,0,0-1.56-.86A1.42,1.42,0,0,0,68.8,93,1.44,1.44,0,0,0,70,94.5a1.55,1.55,0,0,0,1.6-.64c.12-.18-.22-.4-.32-.29Zm-1.5-.67a.94.94,0,0,1,0-.54.45.45,0,0,1,.25-.29.4.4,0,0,1,.37,0,.59.59,0,0,1,.24.36.36.36,0,0,1,0,.29.55.55,0,0,1-.25.14l-.24.08c-.24.07-.35.09-.4-.06Zm-15-1.55v2.37a.3.3,0,0,0,.12.28l.19.08a.07.07,0,0,1,0,.08v0l0,.22c0,.06,0,.07-.13.07H53.58c-.08,0-.12,0-.13-.07l0-.22a.11.11,0,0,1,0,0,.07.07,0,0,1,0-.08l.19-.08a.3.3,0,0,0,.12-.28v-1a.09.09,0,0,0-.09-.08H53a.08.08,0,0,0-.08.08h0v1A.3.3,0,0,0,53,94l.18.08a.07.07,0,0,1,0,.08.08.08,0,0,1,0,0l0,.22c0,.06,0,.07-.13.07H51.7c-.08,0-.12,0-.12-.07l0-.21v0a.08.08,0,0,1,0-.08l.19-.08a.3.3,0,0,0,.12-.28V91.36a.29.29,0,0,0-.12-.28L51.59,91a.07.07,0,0,1,0-.08v0l0-.15c0-.06,0-.07.13-.07H53c.08,0,.12,0,.13.07l0,.15v0a.08.08,0,0,1,0,.08l-.16.08a.3.3,0,0,0-.09.28V92a.09.09,0,0,0,.08.09h.74a.08.08,0,0,0,.08-.09v-.66a.28.28,0,0,0-.09-.28L53.52,91a.07.07,0,0,1,0-.08v0l0-.15c0-.06,0-.07.12-.07h1.31c.08,0,.12,0,.13.07l0,.15a.06.06,0,0,1,0,0A.07.07,0,0,1,55,91l-.19.08a.3.3,0,0,0-.11.28Zm3.44-.3a.5.5,0,1,1,.52.48h0a.48.48,0,0,1-.5-.47Zm1.33,3.12v0l0,.21c0,.06,0,.07-.12.07H58.14c-.08,0-.11,0-.12-.07l0-.21v0a.07.07,0,0,1,0-.07l.16-.08a.3.3,0,0,0,.12-.26V92.4a.34.34,0,0,0-.12-.31L58.1,92A.07.07,0,0,1,58,92v0l0-.16c0-.06.05-.07.13-.07h.93a.09.09,0,0,1,.09.08v2a.28.28,0,0,0,.12.26l.16.08A.08.08,0,0,1,59.51,94.18Zm3.26-.2a.14.14,0,0,1,0,.17.68.68,0,0,1-.65.36.57.57,0,0,1-.62-.57V92.5a.26.26,0,0,0-.22-.28h-.06c-.18,0-.32.18-.32.47v1.08a.29.29,0,0,0,.12.27l.15.08a.08.08,0,0,1,0,.08v0l0,.21c0,.06,0,.07-.12.07H59.88c-.08,0-.11,0-.12-.07l0-.21a.06.06,0,0,1,0,0,.07.07,0,0,1,0-.08l.15-.08a.28.28,0,0,0,.12-.26V92.41a.33.33,0,0,0-.12-.31L59.84,92a.07.07,0,0,1,0-.08v0l0-.15c0-.06,0-.07.13-.07h.87a.12.12,0,0,1,.12.08l0,.06.14-.07a1.36,1.36,0,0,1,.85-.16.7.7,0,0,1,.49.77v1.5a.1.1,0,0,0,0,.11.31.31,0,0,0,.18-.08.1.1,0,0,1,.13,0Zm12,0a.15.15,0,0,1,0,.17.68.68,0,0,1-.65.36.57.57,0,0,1-.62-.57V92.5a.25.25,0,0,0-.22-.28h-.06c-.18,0-.32.18-.32.47v1.08A.29.29,0,0,0,73,94l.15.08a.07.07,0,0,1,0,.08.06.06,0,0,1,0,0l0,.21c0,.06,0,.07-.12.07H71.83c-.08,0-.11,0-.12-.07l0-.21v0a.08.08,0,0,1,0-.08l.16-.08a.3.3,0,0,0,.1-.27V92.4a.34.34,0,0,0-.12-.31L71.78,92a.07.07,0,0,1,0-.08,0,0,0,0,1,0,0l0-.16c0-.06.05-.07.13-.07h.88a.12.12,0,0,1,.12.08l0,.06.14-.07a1.31,1.31,0,0,1,.85-.16.69.69,0,0,1,.48.77v1.5a.1.1,0,0,0,0,.11.3.3,0,0,0,.17-.08.11.11,0,0,1,.14.05Zm-5.85.2v0l0,.21c0,.06,0,.07-.12.07H68c-.13,0-.14,0-.19-.14l-.62-1.13-.23.22v.32a.3.3,0,0,0,.13.26l.15.08a.07.07,0,0,1,0,.08v0l0,.21c0,.06,0,.07-.12.07H65.91c-.08,0-.12,0-.12-.07l0-.21v0a.08.08,0,0,1,0-.07L66,94a.29.29,0,0,0,.12-.26V91.33a.29.29,0,0,0-.12-.26L65.8,91a.08.08,0,0,1,0-.07v0l0-.16c0-.06,0-.07.12-.07h.89a.15.15,0,0,1,.15.16v1.84l.4-.35.18-.17s0-.09,0-.11L67.38,92a.07.07,0,0,1,0-.07v0l0-.2c0-.05,0-.06.12-.06h1.06c.07,0,.11,0,.12.06l0,.2v0a.1.1,0,0,1-.08.08l-.15.06a1.41,1.41,0,0,0-.24.18l-.41.4.65,1.18a.59.59,0,0,0,.23.23l.15.08a.07.07,0,0,1,0,.07Zm6.05-4a.74.74,0,1,0,.74.74h0a.74.74,0,0,0-.74-.73Zm0,1.31a.58.58,0,1,1,.58-.58.58.58,0,0,1-.58.58h0m.2-.59a.21.21,0,0,0,.12-.2.24.24,0,0,0-.24-.22h-.39v.79h.18V91h.07a.14.14,0,0,1,.17.11,2.09,2.09,0,0,0,.07.2h.19a.71.71,0,0,1-.06-.2.22.22,0,0,0-.11-.17Zm-.17-.1h-.15v-.19h.12a.1.1,0,0,1,.12.08h0a.09.09,0,0,1-.09.1h0Z" style="fill:#fff"/><g style="clip-path:url(#clip-path-3)"><rect x="48.94" y="46.77" width="28.61" height="28.74" style="fill:url(#linear-gradient-3)"/></g></g></g></svg>