<svg xmlns="http://www.w3.org/2000/svg" viewBox="0 0 123.85 233.9">
  <title>Highlighted person</title>
  <g id="Layer_2" data-name="Layer 2">
    <g id="Layer_1-2" data-name="Layer 1">
      <path
        d="M0,233.9Q0,117,0,0H123.85V233.9ZM58.25,132.19,60.1,132a42.1,42.1,0,0,1,.73,4.79c.46,11.48.8,23,1.27,34.45.49,12,1,24,1.65,35.94.3,5.62,3.69,8.91,8.75,8.88s8.18-3.43,8.35-9.2c.06-2-.13-4-.18-6q-1.39-59.19-2.75-118.39c0-1.53.2-3.06.3-4.59l1.33-.07c.44,2.49.91,5,1.31,7.47C83,98.38,85,111.54,87.16,124.67c.79,4.8,3.83,7.16,7.8,6.38,3.64-.72,5.53-4,4.91-8.5-.22-1.65-.54-3.28-.78-4.93-2.43-16.8-4.72-33.61-7.31-50.38-1.71-11.05-8-16.27-19.12-16.32-9.49,0-19-.11-28.48,0-9,.13-15.75,5.56-17.13,14.44-3,19.23-5.62,38.52-8.39,57.79-.58,4,.85,6.95,5,7.86,3.82.84,6.73-1.57,7.47-6.06,1.71-10.34,3.32-20.69,5-31C37,88.53,38,83.12,38.91,77.71l1.38.12a26,26,0,0,1,.44,3.65c-.42,24.65-.81,49.29-1.34,73.94-.36,16.82-1,33.63-1.34,50.45-.14,6.91,4.24,11.09,10,10,4.38-.84,6.93-4.13,7.14-9.5.75-19.47,1.42-38.95,2.17-58.42C57.53,142.69,57.94,137.44,58.25,132.19ZM43.85,31.42A15.49,15.49,0,0,0,59.59,46.67a15.67,15.67,0,0,0,15.09-15.5,15.48,15.48,0,0,0-15.6-15.39A15.26,15.26,0,0,0,43.85,31.42Z"
        style="fill:#651554"/>
      <path
        d="M57.89,132.38c-.32,5.25-.72,10.51-.93,15.76-.76,19.47-1.43,38.95-2.17,58.42-.21,5.37-2.75,8.65-7.14,9.5-5.74,1.1-10.12-3.08-10-10,.35-16.82,1-33.63,1.34-50.45.53-24.64.92-49.29,1.34-73.94A26,26,0,0,0,39.93,78l-1.38-.12c-.93,5.41-1.89,10.82-2.78,16.24-1.69,10.34-3.3,20.7-5,31-.74,4.48-3.65,6.89-7.47,6.06-4.16-.91-5.59-3.82-5-7.86,2.77-19.27,5.4-38.56,8.39-57.79,1.38-8.88,8.09-14.31,17.13-14.44,9.49-.14,19-.07,28.48,0,11.09,0,17.42,5.26,19.12,16.32C94,84.2,96.3,101,98.72,117.81c.24,1.65.56,3.28.78,4.93.62,4.54-1.27,7.79-4.91,8.5-4,.78-7-1.58-7.8-6.38-2.15-13.13-4.19-26.28-6.28-39.43-.4-2.5-.87-5-1.31-7.47L77.88,78c-.11,1.53-.34,3.06-.3,4.59Q78.92,141.82,80.32,201c0,2,.23,4,.18,6-.17,5.77-3.3,9.17-8.35,9.2s-8.45-3.26-8.75-8.88c-.63-12-1.16-24-1.65-35.94-.47-11.48-.81-23-1.27-34.45a42.1,42.1,0,0,0-.73-4.79Z"
        style="fill:none"/>
      <path
        d="M43.49,31.61A15.26,15.26,0,0,1,58.72,16a15.48,15.48,0,0,1,15.6,15.39,15.67,15.67,0,0,1-15.09,15.5A15.49,15.49,0,0,1,43.49,31.61Z"
        style="fill:none"/>
    </g>
  </g>
</svg>
